<svg width="91" height="49" xmlns="http://www.w3.org/2000/svg" xmlns:xlink="http://www.w3.org/1999/xlink"><defs><path id="a" d="M.06.048h7.939v8.914H.059z"/><path id="c" d="M0 .014h27.976v48.828H0z"/></defs><g fill="none" fill-rule="evenodd"><path d="M63.387 14.099v1.42c.721 0 1.413.018 2.103-.006.462-.016.696-.29.687-.72-.01-.427-.253-.679-.72-.69-.677-.016-1.355-.004-2.07-.004zm-.01 4.82c.58 0 1.107.006 1.635-.003.35-.006.708-.002 1.051-.062.37-.064.551-.37.537-.779-.014-.404-.225-.699-.616-.712-.862-.03-1.726-.01-2.607-.01v1.565zM61 20.998v-8.964c.125-.01.241-.028.358-.028 1.387-.001 2.775-.02 4.162.01a5.33 5.33 0 0 1 1.478.226c.924.292 1.445.961 1.561 1.9.109.879-.154 1.62-.943 2.133-.033.022-.064.047-.1.074.046.042.07.079.105.093 1.161.49 1.48 1.497 1.352 2.378-.16 1.1-.935 1.865-2.103 2.088a4.667 4.667 0 0 1-.85.086c-1.658.008-3.316.004-5.02.004zM38.31 16.472c.788 0 1.535.031 2.278-.01.588-.033.938-.464.972-1.068.038-.68-.241-1.168-.854-1.225-.787-.073-1.587-.018-2.396-.018v2.32zM36 12.002h1.858c.938.003 1.877-.013 2.814.015 1.563.046 2.674.888 3.029 2.257.418 1.616-.148 3.113-1.476 3.904-.045.027-.089.056-.181.115l.95 1.319L44 20.999c-.95 0-1.825.006-2.7-.01-.087-.002-.189-.131-.255-.222-.438-.6-.884-1.197-1.295-1.817-.185-.277-.39-.4-.723-.36-.222.026-.45.005-.721.005v2.38H36v-8.973zM73.319 29.482c.743 0 1.437.019 2.13-.006.69-.024 1.084-.437 1.114-1.1.032-.72-.298-1.191-.99-1.245-.74-.058-1.488-.013-2.254-.013v2.364zM71 25.002c.714 0 1.408-.002 2.102 0 .871.003 1.743-.014 2.613.017 1.936.067 3.194 1.445 3.11 3.358-.056 1.272-.57 2.268-1.784 2.91L79 34c-.95 0-1.825.006-2.7-.01-.087-.002-.188-.132-.254-.223-.439-.6-.885-1.197-1.296-1.817-.185-.278-.391-.398-.723-.359-.222.026-.45.005-.72.005v2.38H71v-8.973zM54.548 17.002c0-1.476-1.109-2.613-2.546-2.613-1.428 0-2.551 1.153-2.55 2.617.001 1.463 1.124 2.611 2.553 2.61 1.437 0 2.544-1.137 2.543-2.614m-2.501-5.001c2.774.056 5.005 2.33 4.952 5.047a5.009 5.009 0 0 1-5.163 4.95c-2.654-.06-4.886-2.386-4.835-5.038.053-2.758 2.348-5.014 5.046-4.959M74.452 17.004c0 1.462 1.123 2.612 2.552 2.612 1.437 0 2.544-1.137 2.544-2.613s-1.107-2.613-2.545-2.614c-1.428 0-2.552 1.152-2.551 2.615M76.975 22c-2.73-.012-5.01-2.314-4.975-5.026.036-2.733 2.272-4.963 4.99-4.974 2.75-.011 5.046 2.295 5.01 5.033-.037 2.766-2.275 4.979-5.025 4.967M61.452 29.009c.002 1.462 1.127 2.61 2.556 2.608 1.437-.001 2.542-1.14 2.54-2.617-.002-1.476-1.112-2.613-2.549-2.61-1.428.001-2.55 1.155-2.547 2.619m2.6-5.008c2.776.062 5.006 2.339 4.947 5.052-.062 2.832-2.338 5.01-5.168 4.946-2.652-.061-4.886-2.395-4.83-5.044.059-2.761 2.355-5.014 5.05-4.954M42.88 27.272c-.672 0-1.298.008-1.924-.009-.078-.002-.203-.115-.221-.2-.104-.472-.399-.738-.786-.805a2.838 2.838 0 0 0-1.108.03c-.173.04-.391.305-.42.5-.021.15.188.422.35.512.425.236.89.379 1.322.603.634.33 1.29.635 1.869 1.064.825.611 1.157 1.54 1 2.64-.145 1.031-.73 1.684-1.578 2.024-1.346.539-2.693.497-3.992-.186-.954-.502-1.46-1.454-1.385-2.52.646 0 1.296-.003 1.946.005.058 0 .153.061.168.116.151.528.543.697.961.744.38.044.776.02 1.151-.056.153-.032.349-.265.38-.439.025-.145-.125-.416-.26-.495-.432-.249-.898-.424-1.344-.646-.628-.314-1.299-.56-1.864-.983-1.582-1.182-1.468-3.615.225-4.593 1.424-.822 2.893-.758 4.287.134.837.536 1.226 1.409 1.223 2.56M49 39h2.23v.95c0 1.213-.002 2.426 0 3.64.001.208.005.418.032.624.176 1.387 1.465 2.058 2.682 1.394.568-.31.795-.847.806-1.46.028-1.553.02-3.105.027-4.658v-.486h2.187c.011.068.029.13.029.19-.001 1.67.024 3.341-.013 5.01-.05 2.24-1.567 3.768-3.756 3.795-.554.007-1.134-.042-1.661-.205-1.593-.491-2.35-1.695-2.534-3.327a5.63 5.63 0 0 1-.028-.624c-.002-1.603 0-3.205 0-4.843M50.472 27.112v2.752c.612 0 1.203.032 1.79-.007.822-.056 1.25-.551 1.25-1.373.001-.8-.454-1.315-1.267-1.365-.575-.035-1.154-.007-1.773-.007m-.025 4.853V34H48v-8.962c.073-.012.139-.032.205-.032 1.43.002 2.863-.023 4.293.016 2.135.056 3.517 1.454 3.502 3.487-.016 2.044-1.396 3.396-3.542 3.454-.65.017-1.299.002-2.01.002M63.46 43.848c.66 0 1.282.043 1.894-.011.748-.068 1.131-.561 1.14-1.338.01-.754-.389-1.288-1.12-1.358-.624-.06-1.26-.012-1.914-.012v2.719zM61 39.006c.836 0 1.653-.005 2.47.001.806.006 1.619-.04 2.416.046 2.125.228 3.431 2.005 3.047 4.07-.328 1.766-1.585 2.785-3.515 2.834-.634.017-1.27.003-1.966.003V48H61v-8.994zM42.943 45.252l2.04.957c-.5 1.687-2.81 3.02-4.756 2.758-2.339-.314-4.064-2.275-4.219-4.795-.137-2.24 1.421-4.418 3.587-5.016 2.127-.588 4.494.536 5.405 2.589l-2.036.982c-1.258-1.553-2.797-1.774-3.912-.589-1.007 1.072-.94 2.865.133 3.852.94.865 2.723.986 3.758-.738" fill="#616161"/><g transform="translate(83 25)"><mask id="b" fill="#fff"><use xlink:href="#a"/></mask><path fill="#616161" mask="url(#b)" d="M5.208 8.962h-2.34V2.268H.06V.048H8v2.185h-2.79z"/></g><g><mask id="d" fill="#fff"><use xlink:href="#c"/></mask><path d="M15.059 2.592a1.492 1.492 0 0 0-2.143 0 1.597 1.597 0 0 0 0 2.205 1.492 1.492 0 0 0 2.143 0c.589-.606.589-1.6 0-2.205m3.974 11.143H8.942c-1.894 0-3.617.798-4.867 2.084-2.683 2.76-2.683 7.251 0 10.012 1.25 1.285 2.973 2.083 4.867 2.083h10.09c1.895 0 3.618-.798 4.867-2.083 2.684-2.76 2.684-7.252 0-10.012-1.25-1.286-2.972-2.084-4.866-2.084m-8.987 5.992a1.492 1.492 0 0 0-2.144 0 1.597 1.597 0 0 0 0 2.205 1.492 1.492 0 0 0 2.144 0c.588-.606.588-1.6 0-2.205m1.462-1.504c1.392 1.431 1.392 3.781 0 5.213a3.526 3.526 0 0 1-5.068 0c-1.392-1.432-1.392-3.782 0-5.213a3.527 3.527 0 0 1 5.068 0m8.564 1.495a1.492 1.492 0 0 0-2.143 0 1.598 1.598 0 0 0 0 2.205 1.492 1.492 0 0 0 2.143 0c.589-.606.589-1.6 0-2.205m1.462-1.504c1.392 1.431 1.392 3.78 0 5.213a3.527 3.527 0 0 1-5.067 0c-1.392-1.432-1.392-3.782 0-5.213a3.526 3.526 0 0 1 5.067 0M18.41 30.056h-8.8c-1.671 0-3.19.704-4.293 1.838a6.325 6.325 0 0 0-1.787 4.417c0 2.853 1.136 5.448 2.965 7.33 3.985 4.1 11.044 4.1 15.03 0a10.498 10.498 0 0 0 2.964-7.33 6.325 6.325 0 0 0-1.786-4.417c-1.103-1.134-2.623-1.838-4.293-1.838M2.962 31.5a8.309 8.309 0 0 1 2.305-2.273 9.024 9.024 0 0 1-2.654-1.891c-3.486-3.587-3.486-9.434 0-13.02 1.624-1.67 3.864-2.707 6.329-2.707h10.09c2.466 0 4.706 1.036 6.33 2.706 3.486 3.587 3.486 9.434 0 13.02a9.026 9.026 0 0 1-2.63 1.88 8.336 8.336 0 0 1 2.335 2.28c.658.912 1.056 2.125 1.056 2.125.28.846.433 1.751.433 2.692a12.65 12.65 0 0 1-3.57 8.834c-4.793 4.93-13.161 4.93-17.954 0a12.651 12.651 0 0 1-3.57-8.834c0-.94.152-1.846.432-2.692 0 0 .532-1.323 1.068-2.12m13.56-30.411c1.39 1.431 1.39 3.781 0 5.213a3.564 3.564 0 0 1-1.5.924v3.352h-2.069V7.225a3.564 3.564 0 0 1-1.5-.924c-1.391-1.432-1.391-3.782 0-5.213a3.526 3.526 0 0 1 5.068 0" fill="#616161" mask="url(#d)"/></g></g></svg>