<svg version="1" xmlns="http://www.w3.org/2000/svg" width="346.667" height="346.667" viewBox="0 0 260.000000 260.000000"><path d="M110.5 11.6c-51.4 8.9-91.1 49.1-99 100.2-1.4 8.5-1.3 31.2 0 37.7 3.4 16.8 7.2 27 14.6 39.9 6.1 10.7 9.2 14.7 18.3 24.3 15.6 16.3 37.7 28.6 61.1 33.8 8.6 2 31.1 2.6 42 1.2 17.9-2.2 39.7-11.6 56-23.9 12.5-9.6 27-27.5 34.5-42.7 3.7-7.3 8.6-22 9.5-28.1.4-2.4.9-4.8 1.2-5.3.9-1.5 1.2-28.2.3-34.2-5.9-40.5-29.7-73.7-65.9-91.9-7.6-3.9-22.3-9.1-28.1-10-1.9-.3-4.6-.8-6-1.2-5.3-1.3-30.6-1.1-38.5.2z"/></svg>