<svg xmlns="http://www.w3.org/2000/svg" xmlns:xlink="http://www.w3.org/1999/xlink" width="179" height="96"><defs><path id="a" d="M.119.097h15.878v17.827H.119z"/><path id="c" d="M0 .027h55.952v95.664H0z"/></defs><g fill="none" fill-rule="evenodd"><path fill="#FFFFFE" d="M123.775 27.198v2.84c1.442 0 2.825.035 4.205-.012.924-.032 1.393-.581 1.373-1.439-.019-.854-.504-1.359-1.439-1.38-1.354-.033-2.71-.009-4.14-.009zm-.021 9.639c1.159 0 2.214.013 3.27-.005.702-.012 1.415-.004 2.102-.123.738-.128 1.102-.74 1.074-1.558-.028-.81-.45-1.398-1.232-1.425-1.725-.06-3.453-.019-5.214-.019v3.13zM119 40.997V23.07c.25-.02.482-.055.715-.056 2.776-.003 5.552-.04 8.326.02.99.02 2.017.154 2.955.451 1.849.586 2.89 1.924 3.122 3.8.217 1.759-.309 3.242-1.886 4.268-.066.043-.128.093-.201.147.093.083.142.158.212.187 2.321.978 2.96 2.993 2.704 4.755-.32 2.199-1.87 3.73-4.207 4.176a9.335 9.335 0 0 1-1.7.172c-3.316.016-6.632.008-10.04.008zM75.62 30.943c1.576 0 3.07.064 4.555-.02 1.176-.066 1.876-.927 1.944-2.134.077-1.361-.481-2.337-1.708-2.451-1.574-.147-3.173-.036-4.792-.036v4.641zM71 22.003c1.263 0 2.49-.002 3.717.001 1.876.005 3.753-.026 5.628.03 3.125.092 5.346 1.776 6.056 4.515.838 3.231-.294 6.224-2.95 7.807-.092.054-.18.113-.364.23.64.89 1.271 1.764 1.903 2.637.634.878 1.27 1.755 2.01 2.774-1.9 0-3.65.013-5.4-.02-.174-.003-.377-.261-.51-.442-.877-1.202-1.769-2.396-2.59-3.634-.37-.556-.78-.8-1.446-.72-.444.052-.9.009-1.442.009v4.76H71V22.004z"/><path fill="#009FC3" d="M145.637 57.963c1.487 0 2.876.038 4.262-.01 1.377-.05 2.167-.874 2.226-2.203.065-1.438-.595-2.38-1.98-2.489-1.48-.115-2.974-.026-4.508-.026v4.728zM141 49.004c1.428 0 2.816-.003 4.204 0 1.742.006 3.486-.028 5.227.033 3.87.136 6.387 2.891 6.218 6.718-.112 2.543-1.14 4.535-3.568 5.82L157 66.998c-1.899 0-3.65.012-5.4-.02-.174-.004-.375-.264-.508-.445-.877-1.202-1.77-2.395-2.592-3.634-.37-.557-.782-.796-1.446-.718-.444.052-.9.01-1.442.01v4.76H141V49.004z"/><path fill="#FFFFFE" d="M108.341 31.505c-.001-2.806-2.106-4.966-4.837-4.965-2.713 0-4.848 2.19-4.846 4.971.003 2.78 2.137 4.962 4.852 4.961 2.73 0 4.833-2.162 4.831-4.967m-4.753-9.503c5.271.107 9.511 4.428 9.41 9.59-.105 5.372-4.438 9.527-9.81 9.405-5.042-.113-9.283-4.533-9.186-9.573.1-5.24 4.46-9.526 9.586-9.422M146.658 31.507c.002 2.78 2.135 4.963 4.849 4.963 2.731 0 4.834-2.16 4.834-4.964 0-2.805-2.103-4.965-4.835-4.966-2.713-.001-4.85 2.188-4.848 4.967M151.452 41c-5.188-.022-9.518-4.396-9.451-9.549.067-5.193 4.316-9.43 9.48-9.45 5.225-.022 9.587 4.36 9.518 9.56-.07 5.258-4.322 9.461-9.547 9.439"/><path fill="#009FC3" d="M120.658 57.516c.005 2.778 2.141 4.959 4.857 4.956 2.73-.002 4.83-2.166 4.826-4.973-.004-2.804-2.112-4.964-4.842-4.96-2.713.004-4.845 2.196-4.84 4.977m4.939-9.514c5.275.117 9.512 4.443 9.4 9.6-.117 5.38-4.443 9.519-9.819 9.395-5.038-.115-9.284-4.549-9.177-9.583.111-5.245 4.475-9.525 9.596-9.412M84.76 54.218c-1.344 0-2.597.013-3.848-.018-.156-.004-.406-.218-.443-.379-.208-.898-.797-1.404-1.57-1.531a5.97 5.97 0 0 0-2.217.057c-.345.076-.782.58-.838.95-.044.286.373.801.698.973.85.449 1.781.72 2.643 1.145 1.269.626 2.58 1.208 3.739 2.023 1.65 1.16 2.313 2.924 2.001 5.016-.291 1.959-1.462 3.199-3.157 3.844-2.692 1.024-5.385.945-7.983-.353-1.909-.953-2.92-2.763-2.77-4.788 1.291 0 2.591-.005 3.89.01.118.002.306.116.338.22.301 1.004 1.085 1.324 1.921 1.415.76.083 1.552.038 2.302-.108.306-.06.698-.503.76-.833.05-.276-.25-.792-.52-.94-.865-.474-1.797-.807-2.688-1.23-1.256-.595-2.598-1.063-3.728-1.865-3.165-2.246-2.935-6.87.45-8.728 2.848-1.562 5.787-1.44 8.574.255 1.673 1.018 2.452 2.676 2.445 4.865M96 77h4.737v1.899c0 2.426-.003 4.853.003 7.28.001.417.01.837.066 1.249.375 2.775 3.114 4.115 5.7 2.788 1.208-.62 1.69-1.695 1.713-2.922.06-3.104.043-6.209.056-9.314.002-.307 0-.615 0-.972h4.65c.022.137.06.26.06.382-.002 3.34.05 6.68-.028 10.019-.106 4.478-3.328 7.536-7.981 7.59-1.178.013-2.41-.086-3.53-.41-3.384-.983-4.992-3.39-5.384-6.654-.05-.414-.058-.833-.059-1.25C95.998 83.481 96 80.276 96 77M97.943 53.224v5.505c1.224 0 2.408.063 3.58-.016 1.646-.11 2.5-1.102 2.502-2.745.002-1.6-.909-2.63-2.535-2.73-1.15-.071-2.309-.014-3.547-.014m-.048 9.706V67H93V49.075c.145-.023.277-.063.41-.062 2.861.003 5.725-.046 8.585.03 4.272.114 7.036 2.91 7.005 6.974-.031 4.09-2.792 6.793-7.085 6.908-1.297.035-2.596.005-4.02.005M124.92 86.695c1.318 0 2.563.088 3.788-.022 1.497-.134 2.263-1.121 2.281-2.674.018-1.51-.779-2.577-2.242-2.717-1.248-.12-2.519-.025-3.826-.025v5.438zM120 77.011c1.672 0 3.306-.009 4.94.003 1.611.012 3.238-.08 4.832.092 4.25.457 6.862 4.01 6.095 8.14-.657 3.532-3.171 5.571-7.03 5.669-1.27.032-2.54.005-3.933.005V95H120V77.011zM84.887 88.879l4.08 1.818c-1 3.205-5.62 5.737-9.514 5.24-4.677-.596-8.128-4.323-8.436-9.111-.274-4.254 2.841-8.394 7.172-9.53 4.256-1.117 8.99 1.02 10.811 4.919l-4.072 1.866c-2.515-2.95-5.595-3.371-7.824-1.118-2.015 2.037-1.88 5.443.266 7.318 1.881 1.644 5.446 1.874 7.517-1.402"/><g transform="translate(163 49)"><mask id="b" fill="#fff"><use xlink:href="#a"/></mask><path fill="#009FC3" d="M10.417 17.924H5.738V4.536H.119V.097h15.879v4.368h-5.581z" mask="url(#b)"/></g><g><mask id="d" fill="#fff"><use xlink:href="#c"/></mask><path fill="#009FC3" d="M30.118 5.078a3.027 3.027 0 0 0-4.287 0 3.083 3.083 0 0 0 0 4.32 3.027 3.027 0 0 0 4.287 0 3.083 3.083 0 0 0 0-4.32m7.947 21.832H17.884c-3.789 0-7.234 1.563-9.733 4.081-5.367 5.408-5.367 14.208 0 19.616 2.499 2.518 5.944 4.082 9.733 4.082h20.181c3.789 0 7.234-1.564 9.733-4.082 5.367-5.408 5.367-14.208 0-19.616-2.499-2.518-5.944-4.081-9.733-4.081M20.092 38.648a3.027 3.027 0 0 0-4.287 0 3.084 3.084 0 0 0 0 4.32 3.027 3.027 0 0 0 4.287 0 3.084 3.084 0 0 0 0-4.32m2.924-2.947c2.784 2.805 2.783 7.409 0 10.214-2.784 2.805-7.352 2.805-10.135 0-2.784-2.805-2.784-7.409 0-10.214 2.783-2.804 7.351-2.804 10.135 0m17.128 2.93a3.027 3.027 0 0 0-4.287 0 3.084 3.084 0 0 0 0 4.32 3.027 3.027 0 0 0 4.287 0 3.084 3.084 0 0 0 0-4.32m2.924-2.947c2.784 2.804 2.784 7.408 0 10.213-2.783 2.805-7.352 2.805-10.135 0-2.784-2.805-2.784-7.409 0-10.213 2.783-2.805 7.352-2.805 10.135 0m-6.25 23.202h-17.6c-3.342 0-6.382 1.38-8.586 3.601a12.261 12.261 0 0 0-3.574 8.652c0 5.59 2.271 10.675 5.93 14.361 7.97 8.032 22.088 8.032 30.059 0 3.659-3.686 5.93-8.77 5.93-14.36 0-3.368-1.369-6.431-3.574-8.653-2.204-2.222-5.244-3.601-8.586-3.601M5.924 61.713c1.24-1.769 2.795-3.296 4.61-4.454a18.048 18.048 0 0 1-5.308-3.705c-6.973-7.027-6.973-18.483 0-25.51 3.247-3.271 7.727-5.302 12.658-5.302h20.181c4.93 0 9.41 2.03 12.658 5.303 6.973 7.026 6.973 18.482 0 25.509a18.05 18.05 0 0 1-5.258 3.682 16.52 16.52 0 0 1 4.67 4.465c1.316 1.788 2.111 4.165 2.111 4.165.562 1.656.867 3.43.867 5.273 0 6.741-2.735 12.868-7.142 17.308-9.586 9.66-26.321 9.66-35.907 0-4.406-4.44-7.142-10.567-7.142-17.308 0-1.842.305-3.616.867-5.273 0 0 1.063-2.592 2.135-4.153M33.042 2.131c2.784 2.805 2.784 7.408 0 10.213a7.153 7.153 0 0 1-3 1.81v6.567h-4.135v-6.567a7.153 7.153 0 0 1-3-1.81c-2.784-2.805-2.784-7.408 0-10.213 2.783-2.805 7.352-2.805 10.135 0" mask="url(#d)"/></g></g></svg>
